{"title":"Alvin And The Chipmunks The Road Chip 2015 REPACK 1080p BluRay H","uid":13735726,"size":1921058358,"categoryP":"video","categoryS":"hd___movies","magnet":"?xt=urn:btih:be7379b2bf0f05065f466477571a61924235ca28&amp;dn=Alvin+And+The+Chipmunks+The+Road+Chip+2015+REPACK+1080p+BluRay+H&amp;tr=udp%3A%2F%2Ftracker.leechers-paradise.org%3A6969&amp;tr=udp%3A%2F%2Fzer0day.ch%3A1337&amp;tr=udp%3A%2F%2Fopen.demonii.com%3A1337&amp;tr=udp%3A%2F%2Ftracker.coppersurfer.tk%3A6969&amp;tr=udp%3A%2F%2Fexodus.desync.com%3A6969","seeders":0,"leechers":3,"uploader":"roflcopter2110","files":7,"time":1457046341,"description":"Alvin.And.The.Chipmunks.The.Road.Chip.2015.REPACK.1080p.BluRay.H264.AAC-RARBG\r\n\r\nMediainfo :\r\n\r\nVideo\r\nID : 1\r\nFormat : AVC\r\nFormat/Info : Advanced Video Codec\r\nFormat profile :   \r\nFormat settings, CABAC : Yes\r\nFormat settings, ReFrames : 4 frames\r\nCodec ID : avc1\r\nCodec ID/Info : Advanced Video Coding\r\nDuration : 1h 32mn\r\nBit rate : 2 500 Kbps\r\nWidth : 1 920 pixels\r\nHeight : 1 040 pixels\r\nDisplay aspect ratio : 1.85:1\r\nFrame rate mode : Constant\r\nFrame rate : 23.976 (23976/1000) fps\r\nColor space : YUV\r\nChroma subsampling : 4:2:0\r\nBit depth : 8 bits\r\nScan type : Progressive\r\nBits/(Pixel*Frame) : 0.052\r\nStream size : 1.61 GiB (92%)\r\nWriting library : x264 core 148 r2597M e86f3a1\r\nEncoding settings : cabac=1 / ref=4 / deblock=1:-1:-1 / analyse=0x3:0x113 / me=umh / subme=9 / psy=1 / psy_rd=1.00:0.15 / mixed_ref=1 / me_range=24 / chroma_me=1 / trellis=2 / 8x8dct=1 / cqm=0 / deadzone=21,11 / fast_pskip=1 / chroma_qp_offset=-3 / threads=32 / lookahead_threads=4 / sliced_threads=0 / nr=0 / decimate=1 / interlaced=0 / bluray_compat=0 / constrained_intra=0 / bframes=3 / b_pyramid=2 / b_adapt=2 / b_bias=0 / direct=3 / weightb=1 / open_gop=0 / weightp=2 / keyint=250 / keyint_min=25 / scenecut=40 / intra_refresh=0 / rc_lookahead=50 / rc=2pass / mbtree=1 / bitrate=2500 / ratetol=1.0 / qcomp=0.60 / qpmin=0 / qpmax=69 / qpstep=4 / cplxblur=20.0 / qblur=0.5 / vbv_maxrate=31250 / vbv_bufsize=31250 / nal_hrd=none / filler=0 / ip_ratio=1.40 / aq=3:1.00\r\nEncoded date : UTC 2016-03-02 03:41:06\r\nTagged date : UTC 2016-03-02 03:41:06\r\n\r\nAudio\r\nID : 2\r\nFormat : AAC\r\nFormat/Info : Advanced Audio Codec\r\nFormat profile : LC\r\nCodec ID : 40\r\nDuration : 1h 32mn\r\nBit rate mode : Constant\r\nBit rate : 224 Kbps\r\nChannel(s) : 2 channels\r\nChannel(s)_Original : 6 channels\r\nChannel positions : Front: L C R, Side: L R, LFE\r\nSampling rate : 48.0 KHz\r\nFrame rate : 46.875 fps (1024 spf)\r\nCompression mode : Lossy\r\nStream size : 147 MiB (8%)\r\nLanguage : English\r\nDefault : Yes\r\nAlternate group : 1\r\nEncoded date : UTC 2016-03-02 03:41:06\r\nTagged date : UTC 2016-03-02 03:41:06\r\n\r\nScreens: \nhttp://cdn.imagecurl.org/images/53616332319090659131.png \nhttp://cdn.imagecurl.org/images/88331895419020656788.png \nhttp://cdn.imagecurl.org/images/61591185426697802668.png \nhttp://cdn.imagecurl.org/images/20986089271867504205.png \nhttp://cdn.imagecurl.org/images/15002517262822767286.png","torrent":{"xt":"urn:btih:be7379b2bf0f05065f466477571a61924235ca28","amp;dn":"Alvin+And+The+Chipmunks+The+Road+Chip+2015+REPACK+1080p+BluRay+H","amp;tr":["udp%3A%2F%2Ftracker.leechers-paradise.org%3A6969","udp%3A%2F%2Fzer0day.ch%3A1337","udp%3A%2F%2Fopen.demonii.com%3A1337","udp%3A%2F%2Ftracker.coppersurfer.tk%3A6969","udp%3A%2F%2Fexodus.desync.com%3A6969"],"infoHash":"be7379b2bf0f05065f466477571a61924235ca28","infoHashBuffer":{"type":"Buffer","data":[190,115,121,178,191,15,5,6,95,70,100,119,87,26,97,146,66,53,202,40]},"announce":[],"urlList":[]}}